<?xml version="1.0" encoding="utf-8"?>
<!-- Generated by IcoMoon.io -->
<!DOCTYPE svg PUBLIC "-//W3C//DTD SVG 1.1//EN" "http://www.w3.org/Graphics/SVG/1.1/DTD/svg11.dtd">
<svg version="1.1" xmlns="http://www.w3.org/2000/svg" xmlns:xlink="http://www.w3.org/1999/xlink" width="64" height="64" viewBox="0 0 64 64">
<path d="M54.483 25.375c-0.010-0.055-0.020-0.109-0.034-0.162-0.009-0.032-0.020-0.062-0.030-0.094-0.015-0.047-0.031-0.095-0.050-0.141-0.014-0.032-0.028-0.063-0.043-0.094-0.021-0.044-0.042-0.087-0.066-0.128-0.017-0.031-0.036-0.060-0.055-0.090-0.026-0.040-0.053-0.079-0.082-0.117-0.021-0.028-0.043-0.056-0.066-0.083-0.030-0.037-0.063-0.071-0.096-0.105-0.025-0.026-0.051-0.051-0.078-0.076-0.035-0.032-0.072-0.062-0.109-0.092-0.029-0.023-0.057-0.045-0.088-0.066-0.011-0.008-0.021-0.017-0.032-0.024l-20.581-13.721c-0.65-0.434-1.497-0.434-2.146 0l-20.581 13.721c-0.011 0.007-0.021 0.017-0.032 0.024-0.030 0.021-0.059 0.044-0.088 0.066-0.037 0.030-0.075 0.060-0.11 0.092-0.027 0.024-0.052 0.050-0.077 0.076-0.034 0.034-0.066 0.069-0.097 0.105-0.023 0.027-0.045 0.055-0.066 0.083-0.029 0.038-0.056 0.077-0.082 0.117-0.019 0.030-0.038 0.059-0.055 0.090-0.024 0.042-0.046 0.085-0.066 0.128-0.015 0.031-0.030 0.062-0.043 0.094-0.019 0.046-0.035 0.094-0.050 0.141-0.010 0.032-0.021 0.062-0.030 0.094-0.014 0.053-0.024 0.108-0.034 0.162-0.005 0.028-0.012 0.055-0.016 0.083-0.011 0.084-0.017 0.168-0.017 0.253v13.721c0 0.085 0.007 0.169 0.017 0.253 0.004 0.028 0.011 0.055 0.016 0.084 0.009 0.054 0.020 0.109 0.034 0.162 0.008 0.032 0.020 0.063 0.030 0.094 0.015 0.047 0.031 0.095 0.050 0.142 0.013 0.032 0.028 0.063 0.043 0.093 0.020 0.044 0.041 0.086 0.066 0.129 0.017 0.030 0.036 0.060 0.055 0.089 0.026 0.040 0.053 0.079 0.082 0.118 0.021 0.029 0.043 0.056 0.066 0.084 0.031 0.036 0.063 0.071 0.097 0.105 0.025 0.025 0.050 0.051 0.077 0.075 0.035 0.032 0.072 0.063 0.11 0.092 0.029 0.023 0.057 0.045 0.088 0.066 0.011 0.008 0.021 0.017 0.032 0.024l20.581 13.721c0.325 0.217 0.699 0.326 1.073 0.326s0.748-0.109 1.073-0.326l20.581-13.721c0.011-0.007 0.021-0.016 0.032-0.024 0.030-0.021 0.059-0.044 0.088-0.066 0.038-0.029 0.075-0.060 0.109-0.092 0.027-0.024 0.052-0.050 0.078-0.075 0.033-0.034 0.066-0.069 0.096-0.105 0.023-0.027 0.045-0.054 0.066-0.084 0.029-0.038 0.056-0.078 0.082-0.118 0.019-0.029 0.038-0.059 0.055-0.089 0.024-0.043 0.045-0.086 0.066-0.129 0.015-0.031 0.029-0.062 0.043-0.093 0.019-0.047 0.035-0.094 0.050-0.142 0.010-0.032 0.021-0.062 0.030-0.094 0.014-0.053 0.023-0.108 0.034-0.162 0.005-0.028 0.012-0.055 0.015-0.084 0.011-0.084 0.017-0.168 0.017-0.253v-13.72c0-0.085-0.007-0.169-0.017-0.253-0.003-0.028-0.011-0.056-0.015-0.084zM32 37.149l-6.844-4.578 6.844-4.578 6.844 4.578-6.844 4.578zM30.065 24.632l-8.39 5.611-6.772-4.53 15.162-10.107v9.026zM18.195 32.571l-4.841 3.238v-6.476l4.841 3.238zM21.676 34.9l8.39 5.611v9.026l-15.162-10.108 6.772-4.529zM33.935 40.51l8.389-5.611 6.773 4.529-15.162 10.108v-9.026zM45.805 32.571l4.841-3.238v6.476l-4.841-3.238zM42.324 30.243l-8.389-5.611v-9.026l15.162 10.108-6.773 4.53z" fill="#444444"></path>
</svg>
