<?xml version="1.0" encoding="utf-8"?>
<!-- Generated by IcoMoon.io -->
<!DOCTYPE svg PUBLIC "-//W3C//DTD SVG 1.1//EN" "http://www.w3.org/Graphics/SVG/1.1/DTD/svg11.dtd">
<svg version="1.1" xmlns="http://www.w3.org/2000/svg" xmlns:xlink="http://www.w3.org/1999/xlink" width="64" height="64" viewBox="0 0 64 64">
<path d="M32 10.687c-12.391 0-22.438 10.047-22.438 22.438 0 9.915 6.428 18.324 15.345 21.29 1.122 0.205 1.531-0.488 1.531-1.079 0-0.534-0.021-2.303-0.032-4.177-6.239 1.356-7.558-2.646-7.558-2.646-1.021-2.591-2.491-3.281-2.491-3.281-2.039-1.391 0.155-1.364 0.155-1.364 2.253 0.156 3.439 2.312 3.439 2.312 2.002 3.429 5.253 2.438 6.53 1.862 0.204-1.446 0.785-2.438 1.424-2.996-4.981-0.567-10.221-2.492-10.221-11.090 0-2.451 0.875-4.451 2.308-6.022-0.229-0.57-1.001-2.853 0.222-5.941 0 0 1.882-0.603 6.171 2.301 1.788-0.5 3.707-0.746 5.615-0.755 1.906 0.008 3.826 0.258 5.618 0.757 4.281-2.906 6.165-2.301 6.165-2.301 1.227 3.091 0.455 5.371 0.225 5.938 1.438 1.571 2.306 3.57 2.306 6.022 0 8.62-5.248 10.517-10.247 11.073 0.808 0.696 1.523 2.060 1.523 4.152 0 2.999-0.030 5.418-0.030 6.157 0 0.597 0.408 1.296 1.545 1.077 8.91-2.972 15.333-11.38 15.333-21.29 0-12.391-10.047-22.437-22.438-22.437z" fill="#444444"></path>
</svg>
