<?xml version="1.0" encoding="utf-8"?>
<!-- Generated by IcoMoon.io -->
<!DOCTYPE svg PUBLIC "-//W3C//DTD SVG 1.1//EN" "http://www.w3.org/Graphics/SVG/1.1/DTD/svg11.dtd">
<svg version="1.1" xmlns="http://www.w3.org/2000/svg" xmlns:xlink="http://www.w3.org/1999/xlink" width="64" height="64" viewBox="0 0 64 64">
<path d="M12.16 47.67v10.64h33.534v-21.345l-1.741 0.194-1.806 0.193-0.193 8.835-0.194 8.899h-26.376v-18.056h-3.224v10.641zM17.963 49.282v1.934h20.636v-3.869h-20.636v1.935zM18.274 41.664l-0.21 1.923 20.515 2.236 0.419-3.847-20.515-2.236-0.21 1.923zM19.817 32.564l-0.502 1.868 19.93 5.353 1.004-3.737-19.93-5.353-0.502 1.868zM24.047 21.955l-1.030 1.638 17.468 10.988 2.060-3.275-17.468-10.988-1.030 1.638zM33.929 12.076l-1.593 1.097 11.705 16.995 3.187-2.195-11.705-16.995-1.593 1.097zM46.827 7.098l-1.902 0.355 3.785 20.286 3.803-0.71-3.785-20.286-1.902 0.355z" fill="#444444"></path>
</svg>
