<svg version="1.1" xmlns="http://www.w3.org/2000/svg" xmlns:xlink="http://www.w3.org/1999/xlink">
<defs>
<symbol id="icon-github" viewBox="0 0 1024 1024">
<title>GitHub</title>
<path d="M512 170.99c-198.258 0-359.004 160.746-359.004 359 0 158.64 102.856 293.18 245.524 340.642 17.944 3.284 24.498-7.802 24.498-17.27 0-8.544-0.33-36.856-0.504-66.83-99.832 21.692-120.932-42.336-120.932-42.336-16.344-41.456-39.858-52.498-39.858-52.498-32.626-22.262 2.474-21.824 2.474-21.824 36.044 2.498 55.024 36.986 55.024 36.986 32.036 54.87 84.052 39.004 104.474 29.8 3.262-23.138 12.554-39.004 22.788-47.944-79.692-9.070-163.528-39.878-163.528-177.438 0-39.224 14.002-71.212 36.922-96.346-3.66-9.116-16.018-45.644 3.548-95.052 0 0 30.108-9.642 98.736 36.812 28.616-8 59.314-11.942 89.838-12.076 30.5 0.132 61.218 4.12 89.882 12.118 68.496-46.498 98.644-36.812 98.644-36.812 19.632 49.454 7.278 85.936 3.598 95.008 23.008 25.134 36.898 57.124 36.898 96.346 0 137.912-83.968 168.28-163.946 177.174 12.93 11.132 24.364 32.958 24.364 66.438 0 47.988-0.476 86.682-0.476 98.514 0 9.556 6.528 20.73 24.714 17.226 142.558-47.552 245.324-182.088 245.324-340.642 0.002-198.25-160.744-358.996-359.002-358.996z"></path>
</symbol>
<symbol id="icon-stack-overflow" viewBox="0 0 1024 1024">
<title>Stack Overflow</title>
<path d="M194.554 762.724v170.246h536.54v-341.524l-27.86 3.098-28.89 3.094-3.090 141.356-3.096 142.388h-422.012v-288.904h-51.59v170.248zM287.416 788.52v30.952h330.18v-61.908h-330.178v30.956zM292.386 666.628l-3.354 30.772 328.236 35.78 6.708-61.546-328.234-35.78-3.356 30.774zM317.064 521.030l-8.030 29.894 318.878 85.644 16.058-59.79-318.876-85.644-8.030 29.896zM384.76 351.284l-16.482 26.202 279.488 175.802 32.96-52.406-279.484-175.8-16.482 26.202zM542.864 193.22l-25.496 17.556 187.284 271.928 50.986-35.116-187.282-271.924-25.492 17.556zM749.224 113.562l-30.432 5.674 60.564 324.582 60.856-11.356-60.558-324.578-30.43 5.678z"></path>
</symbol>
<symbol id="icon-codepen" viewBox="0 0 1024 1024">
<title>CodePen</title>
<path d="M871.732 405.994c-0.162-0.876-0.312-1.744-0.54-2.598-0.14-0.51-0.322-0.998-0.482-1.506-0.246-0.758-0.492-1.518-0.798-2.256-0.216-0.51-0.454-1.008-0.69-1.506-0.332-0.702-0.674-1.388-1.060-2.056-0.276-0.494-0.578-0.962-0.882-1.436-0.418-0.644-0.846-1.27-1.308-1.88-0.34-0.454-0.692-0.896-1.060-1.332-0.482-0.584-1.004-1.138-1.538-1.682-0.406-0.412-0.814-0.82-1.24-1.208-0.558-0.512-1.146-0.996-1.75-1.47-0.466-0.36-0.92-0.724-1.402-1.060-0.172-0.124-0.332-0.27-0.514-0.386l-329.298-219.534c-10.394-6.936-23.946-6.936-34.34 0l-329.298 219.534c-0.18 0.118-0.332 0.264-0.512 0.386-0.484 0.336-0.938 0.702-1.402 1.060-0.596 0.474-1.194 0.958-1.752 1.47-0.426 0.39-0.834 0.796-1.232 1.208-0.542 0.544-1.052 1.098-1.546 1.682-0.37 0.434-0.718 0.876-1.060 1.332-0.464 0.612-0.892 1.236-1.308 1.88-0.302 0.474-0.606 0.944-0.88 1.436-0.39 0.666-0.73 1.354-1.052 2.056-0.236 0.498-0.482 0.996-0.692 1.506-0.304 0.738-0.56 1.498-0.806 2.256-0.162 0.508-0.34 0.996-0.474 1.506-0.228 0.854-0.388 1.72-0.54 2.598-0.084 0.446-0.188 0.884-0.256 1.334-0.17 1.336-0.274 2.682-0.274 4.046v219.528c0 1.364 0.104 2.708 0.274 4.046 0.068 0.454 0.17 0.886 0.256 1.336 0.152 0.872 0.312 1.742 0.54 2.594 0.132 0.512 0.312 1.004 0.474 1.508 0.246 0.758 0.502 1.516 0.806 2.266 0.208 0.512 0.456 1.004 0.692 1.496 0.322 0.7 0.664 1.382 1.052 2.066 0.274 0.484 0.578 0.958 0.88 1.422 0.416 0.64 0.844 1.27 1.308 1.882 0.342 0.464 0.692 0.902 1.060 1.336 0.494 0.578 1.004 1.136 1.546 1.68 0.396 0.406 0.804 0.824 1.232 1.204 0.558 0.512 1.156 1.004 1.752 1.476 0.464 0.364 0.918 0.722 1.402 1.062 0.18 0.124 0.332 0.266 0.512 0.378l329.296 219.532c5.204 3.468 11.182 5.21 17.17 5.21s11.976-1.742 17.17-5.21l329.296-219.532c0.182-0.114 0.342-0.254 0.514-0.378 0.482-0.34 0.936-0.7 1.402-1.062 0.604-0.472 1.192-0.964 1.75-1.476 0.426-0.378 0.834-0.796 1.24-1.204 0.534-0.542 1.054-1.102 1.538-1.68 0.37-0.434 0.72-0.872 1.060-1.336 0.462-0.614 0.89-1.242 1.308-1.882 0.304-0.464 0.608-0.938 0.882-1.422 0.386-0.684 0.728-1.368 1.060-2.066 0.236-0.492 0.472-0.984 0.69-1.496 0.306-0.75 0.552-1.508 0.798-2.266 0.16-0.504 0.342-0.996 0.482-1.508 0.226-0.852 0.376-1.722 0.54-2.594 0.074-0.45 0.19-0.882 0.246-1.336 0.17-1.34 0.276-2.684 0.276-4.046v-219.526c0-1.364-0.106-2.708-0.276-4.046-0.052-0.45-0.168-0.89-0.242-1.336zM512 594.384l-109.5-73.242 109.5-73.246 109.51 73.246-109.51 73.242zM481.042 394.116l-134.232 89.776-108.354-72.474 242.586-161.72v144.418zM291.124 521.142l-77.454 51.808v-103.622l77.454 51.814zM346.81 558.396l134.232 89.77v144.422l-242.586-161.722 108.354-72.47zM542.958 648.166l134.23-89.77 108.364 72.468-242.594 161.722v-144.42zM732.876 521.142l77.462-51.812v103.622l-77.462-51.81zM677.188 483.892l-134.23-89.776v-144.418l242.594 161.72-108.364 72.474z"></path>
</symbol>
<symbol id="icon-npm" viewBox="0 0 1024 1024">
<title>npm</title>
<path d="M10.238 492.986v167.926h279.536v56.31h223.23v-56.31h500.756v-335.85h-1003.524v167.924zM289.774 492.986v111.616h-56.308v-166.92h-54.298v166.92h-114.632v-223.23h225.24v111.614zM568.914 493.19l-0.604 111.616-109.606-0.4v56.508h-114.63v-279.538h225.24l-0.4 111.816zM959.462 492.986v111.616h-56.314v-166.92h-56.312v167.928l-56.308-1.206v-166.722h-54.298v166.92h-112.62v-223.23h335.852v111.614zM458.704 492.986v55.308h52.288v-110.61h-52.288v55.302z"></path>
</symbol>
</defs>
</svg>
